<mxfile host="Electron" modified="2024-04-12T13:32:08.121Z" agent="Mozilla/5.0 (X11; Linux x86_64) AppleWebKit/537.36 (KHTML, like Gecko) draw.io/22.1.18 Chrome/120.0.6099.199 Electron/28.1.2 Safari/537.36" etag="LxqG_rI375l-lAUeb8NN" version="22.1.18" type="device">
  <diagram name="Page-1" id="03018318-947c-dd8e-b7a3-06fadd420f32">
    <mxGraphModel dx="1434" dy="839" grid="1" gridSize="10" guides="1" tooltips="1" connect="1" arrows="1" fold="1" page="1" pageScale="1" pageWidth="1100" pageHeight="850" background="#ffffff" math="0" shadow="0">
      <root>
        <mxCell id="0" />
        <mxCell id="1" parent="0" />
        <mxCell id="ytZ_dzGZJoyVutZE7Bco-4" value="" style="rounded=0;whiteSpace=wrap;html=1;" parent="1" vertex="1">
          <mxGeometry x="85" y="20" width="980" height="670" as="geometry" />
        </mxCell>
        <mxCell id="ytZ_dzGZJoyVutZE7Bco-6" value="" style="endArrow=none;html=1;entryX=1.001;entryY=0.034;entryDx=0;entryDy=0;entryPerimeter=0;exitX=-0.001;exitY=0.034;exitDx=0;exitDy=0;exitPerimeter=0;" parent="1" edge="1">
          <mxGeometry width="50" height="50" relative="1" as="geometry">
            <mxPoint x="84.02000000000021" y="84.75999999999999" as="sourcePoint" />
            <mxPoint x="1065.98" y="84.75999999999999" as="targetPoint" />
          </mxGeometry>
        </mxCell>
        <mxCell id="z7GxIXsAkPjxGo2HdkS--1" value="Отфильтровать записи" style="strokeWidth=1;shadow=0;dashed=0;align=center;html=1;shape=mxgraph.mockup.buttons.button;strokeColor=#666666;fontColor=#000000;mainText=;buttonStyle=round;fontSize=17;fontStyle=0;fillColor=none;whiteSpace=wrap;rounded=0;labelBackgroundColor=none;" parent="1" vertex="1">
          <mxGeometry x="119.75" y="270" width="290" height="30" as="geometry" />
        </mxCell>
        <mxCell id="z7GxIXsAkPjxGo2HdkS--4" value="&lt;span style=&quot;font-size: 24px&quot;&gt;&lt;b&gt;Просмотр онлайн-записей в парикмахерский салон&lt;/b&gt;&lt;/span&gt;" style="text;html=1;points=[];align=center;verticalAlign=top;spacingTop=-4;fontSize=30;fontFamily=Verdana;fontColor=#000000;" parent="1" vertex="1">
          <mxGeometry x="90" y="100" width="970" height="50" as="geometry" />
        </mxCell>
        <mxCell id="z7GxIXsAkPjxGo2HdkS--7" value="&lt;font style=&quot;font-size: 18px&quot; color=&quot;#000000&quot;&gt;Поле текстового ввода&lt;/font&gt;" style="html=1;shadow=0;dashed=0;shape=mxgraph.bootstrap.rrect;rSize=5;fillColor=#ffffff;strokeColor=#CED4DA;align=left;spacing=15;fontSize=14;fontColor=#6C767D;" parent="1" vertex="1">
          <mxGeometry x="250.25" y="150" width="300" height="40" as="geometry" />
        </mxCell>
        <mxCell id="z7GxIXsAkPjxGo2HdkS--10" value="&lt;span style=&quot;font-size: 18px&quot;&gt;ФИО клиента&lt;/span&gt;" style="text;html=1;strokeColor=none;fillColor=none;align=left;verticalAlign=middle;whiteSpace=wrap;rounded=0;" parent="1" vertex="1">
          <mxGeometry x="119.75" y="160" width="120" height="20" as="geometry" />
        </mxCell>
        <mxCell id="z7GxIXsAkPjxGo2HdkS--13" value="&lt;span style=&quot;font-size: 18px;&quot;&gt;Мастер салона&lt;/span&gt;" style="text;html=1;strokeColor=none;fillColor=none;align=left;verticalAlign=middle;whiteSpace=wrap;rounded=0;" parent="1" vertex="1">
          <mxGeometry x="580.25" y="160" width="130" height="20" as="geometry" />
        </mxCell>
        <mxCell id="z7GxIXsAkPjxGo2HdkS--14" value="&lt;font style=&quot;font-size: 18px&quot; color=&quot;#000000&quot;&gt;Поле выбора даты&lt;/font&gt;" style="html=1;shadow=0;dashed=0;shape=mxgraph.bootstrap.rrect;rSize=5;fillColor=#ffffff;strokeColor=#CED4DA;align=left;spacing=15;fontSize=14;fontColor=#6C767D;" parent="1" vertex="1">
          <mxGeometry x="250.25" y="200" width="300" height="40" as="geometry" />
        </mxCell>
        <mxCell id="z7GxIXsAkPjxGo2HdkS--15" value="" style="shape=triangle;direction=south;fillColor=#343A40;strokeColor=none;perimeter=none;" parent="z7GxIXsAkPjxGo2HdkS--14" vertex="1">
          <mxGeometry x="1" y="0.5" width="7" height="3" relative="1" as="geometry">
            <mxPoint x="-17" y="1" as="offset" />
          </mxGeometry>
        </mxCell>
        <mxCell id="z7GxIXsAkPjxGo2HdkS--16" value="" style="shape=triangle;direction=north;fillColor=#343A40;strokeColor=none;perimeter=none;" parent="z7GxIXsAkPjxGo2HdkS--14" vertex="1">
          <mxGeometry x="1" y="0.5" width="7" height="3" relative="1" as="geometry">
            <mxPoint x="-17" y="-4" as="offset" />
          </mxGeometry>
        </mxCell>
        <mxCell id="z7GxIXsAkPjxGo2HdkS--17" value="&lt;span style=&quot;font-size: 18px&quot;&gt;Дата записи&lt;/span&gt;" style="text;html=1;strokeColor=none;fillColor=none;align=left;verticalAlign=middle;whiteSpace=wrap;rounded=0;" parent="1" vertex="1">
          <mxGeometry x="119.75" y="210" width="120" height="20" as="geometry" />
        </mxCell>
        <mxCell id="z7GxIXsAkPjxGo2HdkS--19" value="&lt;span style=&quot;font-size: 18px&quot;&gt;Услуга салона&lt;/span&gt;" style="text;html=1;strokeColor=none;fillColor=none;align=left;verticalAlign=middle;whiteSpace=wrap;rounded=0;" parent="1" vertex="1">
          <mxGeometry x="580.25" y="210" width="140" height="20" as="geometry" />
        </mxCell>
        <mxCell id="z7GxIXsAkPjxGo2HdkS--20" value="Сбросить параметры фильтрации" style="strokeWidth=1;shadow=0;dashed=0;align=center;html=1;shape=mxgraph.mockup.buttons.button;strokeColor=#666666;fontColor=#000000;mainText=;buttonStyle=round;fontSize=17;fontStyle=0;fillColor=none;whiteSpace=wrap;rounded=0;labelBackgroundColor=none;" parent="1" vertex="1">
          <mxGeometry x="430.25" y="270" width="290" height="30" as="geometry" />
        </mxCell>
        <mxCell id="z7GxIXsAkPjxGo2HdkS--21" value="Зарегистрировать новую запись" style="strokeWidth=1;shadow=0;dashed=0;align=center;html=1;shape=mxgraph.mockup.buttons.button;strokeColor=#666666;fontColor=#000000;mainText=;buttonStyle=round;fontSize=17;fontStyle=0;fillColor=none;whiteSpace=wrap;rounded=0;labelBackgroundColor=none;" parent="1" vertex="1">
          <mxGeometry x="741.25" y="270" width="289" height="30" as="geometry" />
        </mxCell>
        <mxCell id="z7GxIXsAkPjxGo2HdkS--22" value="" style="shape=table;html=1;whiteSpace=wrap;startSize=0;container=1;collapsible=0;childLayout=tableLayout;" parent="1" vertex="1">
          <mxGeometry x="120.25" y="355" width="450" height="120" as="geometry" />
        </mxCell>
        <mxCell id="z7GxIXsAkPjxGo2HdkS--23" value="" style="shape=partialRectangle;html=1;whiteSpace=wrap;collapsible=0;dropTarget=0;pointerEvents=0;fillColor=none;top=0;left=0;bottom=0;right=0;points=[[0,0.5],[1,0.5]];portConstraint=eastwest;" parent="z7GxIXsAkPjxGo2HdkS--22" vertex="1">
          <mxGeometry width="450" height="40" as="geometry" />
        </mxCell>
        <mxCell id="z7GxIXsAkPjxGo2HdkS--24" value="" style="shape=partialRectangle;html=1;whiteSpace=wrap;connectable=0;fillColor=none;top=0;left=0;bottom=0;right=0;overflow=hidden;" parent="z7GxIXsAkPjxGo2HdkS--23" vertex="1">
          <mxGeometry width="150" height="40" as="geometry">
            <mxRectangle width="150" height="40" as="alternateBounds" />
          </mxGeometry>
        </mxCell>
        <mxCell id="z7GxIXsAkPjxGo2HdkS--25" value="" style="shape=partialRectangle;html=1;whiteSpace=wrap;connectable=0;fillColor=none;top=0;left=0;bottom=0;right=0;overflow=hidden;" parent="z7GxIXsAkPjxGo2HdkS--23" vertex="1">
          <mxGeometry x="150" width="150" height="40" as="geometry">
            <mxRectangle width="150" height="40" as="alternateBounds" />
          </mxGeometry>
        </mxCell>
        <mxCell id="z7GxIXsAkPjxGo2HdkS--26" value="" style="shape=partialRectangle;html=1;whiteSpace=wrap;connectable=0;fillColor=none;top=0;left=0;bottom=0;right=0;overflow=hidden;" parent="z7GxIXsAkPjxGo2HdkS--23" vertex="1">
          <mxGeometry x="300" width="150" height="40" as="geometry">
            <mxRectangle width="150" height="40" as="alternateBounds" />
          </mxGeometry>
        </mxCell>
        <mxCell id="z7GxIXsAkPjxGo2HdkS--27" value="" style="shape=partialRectangle;html=1;whiteSpace=wrap;collapsible=0;dropTarget=0;pointerEvents=0;fillColor=none;top=0;left=0;bottom=0;right=0;points=[[0,0.5],[1,0.5]];portConstraint=eastwest;" parent="z7GxIXsAkPjxGo2HdkS--22" vertex="1">
          <mxGeometry y="40" width="450" height="40" as="geometry" />
        </mxCell>
        <mxCell id="z7GxIXsAkPjxGo2HdkS--28" value="" style="shape=partialRectangle;html=1;whiteSpace=wrap;connectable=0;fillColor=none;top=0;left=0;bottom=0;right=0;overflow=hidden;" parent="z7GxIXsAkPjxGo2HdkS--27" vertex="1">
          <mxGeometry width="150" height="40" as="geometry">
            <mxRectangle width="150" height="40" as="alternateBounds" />
          </mxGeometry>
        </mxCell>
        <mxCell id="z7GxIXsAkPjxGo2HdkS--29" value="" style="shape=partialRectangle;html=1;whiteSpace=wrap;connectable=0;fillColor=none;top=0;left=0;bottom=0;right=0;overflow=hidden;" parent="z7GxIXsAkPjxGo2HdkS--27" vertex="1">
          <mxGeometry x="150" width="150" height="40" as="geometry">
            <mxRectangle width="150" height="40" as="alternateBounds" />
          </mxGeometry>
        </mxCell>
        <mxCell id="z7GxIXsAkPjxGo2HdkS--30" value="" style="shape=partialRectangle;html=1;whiteSpace=wrap;connectable=0;fillColor=none;top=0;left=0;bottom=0;right=0;overflow=hidden;" parent="z7GxIXsAkPjxGo2HdkS--27" vertex="1">
          <mxGeometry x="300" width="150" height="40" as="geometry">
            <mxRectangle width="150" height="40" as="alternateBounds" />
          </mxGeometry>
        </mxCell>
        <mxCell id="z7GxIXsAkPjxGo2HdkS--31" value="" style="shape=partialRectangle;html=1;whiteSpace=wrap;collapsible=0;dropTarget=0;pointerEvents=0;fillColor=none;top=0;left=0;bottom=0;right=0;points=[[0,0.5],[1,0.5]];portConstraint=eastwest;" parent="z7GxIXsAkPjxGo2HdkS--22" vertex="1">
          <mxGeometry y="80" width="450" height="40" as="geometry" />
        </mxCell>
        <mxCell id="z7GxIXsAkPjxGo2HdkS--32" value="" style="shape=partialRectangle;html=1;whiteSpace=wrap;connectable=0;fillColor=none;top=0;left=0;bottom=0;right=0;overflow=hidden;" parent="z7GxIXsAkPjxGo2HdkS--31" vertex="1">
          <mxGeometry width="150" height="40" as="geometry">
            <mxRectangle width="150" height="40" as="alternateBounds" />
          </mxGeometry>
        </mxCell>
        <mxCell id="z7GxIXsAkPjxGo2HdkS--33" value="" style="shape=partialRectangle;html=1;whiteSpace=wrap;connectable=0;fillColor=none;top=0;left=0;bottom=0;right=0;overflow=hidden;" parent="z7GxIXsAkPjxGo2HdkS--31" vertex="1">
          <mxGeometry x="150" width="150" height="40" as="geometry">
            <mxRectangle width="150" height="40" as="alternateBounds" />
          </mxGeometry>
        </mxCell>
        <mxCell id="z7GxIXsAkPjxGo2HdkS--34" value="" style="shape=partialRectangle;html=1;whiteSpace=wrap;connectable=0;fillColor=none;top=0;left=0;bottom=0;right=0;overflow=hidden;" parent="z7GxIXsAkPjxGo2HdkS--31" vertex="1">
          <mxGeometry x="300" width="150" height="40" as="geometry">
            <mxRectangle width="150" height="40" as="alternateBounds" />
          </mxGeometry>
        </mxCell>
        <mxCell id="z7GxIXsAkPjxGo2HdkS--35" value="" style="shape=table;html=1;whiteSpace=wrap;startSize=0;container=1;collapsible=0;childLayout=tableLayout;" parent="1" vertex="1">
          <mxGeometry x="570.25" y="355" width="460" height="120" as="geometry" />
        </mxCell>
        <mxCell id="z7GxIXsAkPjxGo2HdkS--36" value="" style="shape=partialRectangle;html=1;whiteSpace=wrap;collapsible=0;dropTarget=0;pointerEvents=0;fillColor=none;top=0;left=0;bottom=0;right=0;points=[[0,0.5],[1,0.5]];portConstraint=eastwest;" parent="z7GxIXsAkPjxGo2HdkS--35" vertex="1">
          <mxGeometry width="460" height="40" as="geometry" />
        </mxCell>
        <mxCell id="z7GxIXsAkPjxGo2HdkS--37" value="" style="shape=partialRectangle;html=1;whiteSpace=wrap;connectable=0;fillColor=none;top=0;left=0;bottom=0;right=0;overflow=hidden;" parent="z7GxIXsAkPjxGo2HdkS--36" vertex="1">
          <mxGeometry width="153" height="40" as="geometry">
            <mxRectangle width="153" height="40" as="alternateBounds" />
          </mxGeometry>
        </mxCell>
        <mxCell id="z7GxIXsAkPjxGo2HdkS--38" value="" style="shape=partialRectangle;html=1;whiteSpace=wrap;connectable=0;fillColor=none;top=0;left=0;bottom=0;right=0;overflow=hidden;" parent="z7GxIXsAkPjxGo2HdkS--36" vertex="1">
          <mxGeometry x="153" width="154" height="40" as="geometry">
            <mxRectangle width="154" height="40" as="alternateBounds" />
          </mxGeometry>
        </mxCell>
        <mxCell id="z7GxIXsAkPjxGo2HdkS--39" value="" style="shape=partialRectangle;html=1;whiteSpace=wrap;connectable=0;fillColor=none;top=0;left=0;bottom=0;right=0;overflow=hidden;" parent="z7GxIXsAkPjxGo2HdkS--36" vertex="1">
          <mxGeometry x="307" width="153" height="40" as="geometry">
            <mxRectangle width="153" height="40" as="alternateBounds" />
          </mxGeometry>
        </mxCell>
        <mxCell id="z7GxIXsAkPjxGo2HdkS--40" value="" style="shape=partialRectangle;html=1;whiteSpace=wrap;collapsible=0;dropTarget=0;pointerEvents=0;fillColor=none;top=0;left=0;bottom=0;right=0;points=[[0,0.5],[1,0.5]];portConstraint=eastwest;" parent="z7GxIXsAkPjxGo2HdkS--35" vertex="1">
          <mxGeometry y="40" width="460" height="40" as="geometry" />
        </mxCell>
        <mxCell id="z7GxIXsAkPjxGo2HdkS--41" value="" style="shape=partialRectangle;html=1;whiteSpace=wrap;connectable=0;fillColor=none;top=0;left=0;bottom=0;right=0;overflow=hidden;" parent="z7GxIXsAkPjxGo2HdkS--40" vertex="1">
          <mxGeometry width="153" height="40" as="geometry">
            <mxRectangle width="153" height="40" as="alternateBounds" />
          </mxGeometry>
        </mxCell>
        <mxCell id="z7GxIXsAkPjxGo2HdkS--42" value="" style="shape=partialRectangle;html=1;whiteSpace=wrap;connectable=0;fillColor=none;top=0;left=0;bottom=0;right=0;overflow=hidden;" parent="z7GxIXsAkPjxGo2HdkS--40" vertex="1">
          <mxGeometry x="153" width="154" height="40" as="geometry">
            <mxRectangle width="154" height="40" as="alternateBounds" />
          </mxGeometry>
        </mxCell>
        <mxCell id="z7GxIXsAkPjxGo2HdkS--43" value="" style="shape=partialRectangle;html=1;whiteSpace=wrap;connectable=0;fillColor=none;top=0;left=0;bottom=0;right=0;overflow=hidden;" parent="z7GxIXsAkPjxGo2HdkS--40" vertex="1">
          <mxGeometry x="307" width="153" height="40" as="geometry">
            <mxRectangle width="153" height="40" as="alternateBounds" />
          </mxGeometry>
        </mxCell>
        <mxCell id="z7GxIXsAkPjxGo2HdkS--44" value="" style="shape=partialRectangle;html=1;whiteSpace=wrap;collapsible=0;dropTarget=0;pointerEvents=0;fillColor=none;top=0;left=0;bottom=0;right=0;points=[[0,0.5],[1,0.5]];portConstraint=eastwest;" parent="z7GxIXsAkPjxGo2HdkS--35" vertex="1">
          <mxGeometry y="80" width="460" height="40" as="geometry" />
        </mxCell>
        <mxCell id="z7GxIXsAkPjxGo2HdkS--45" value="" style="shape=partialRectangle;html=1;whiteSpace=wrap;connectable=0;fillColor=none;top=0;left=0;bottom=0;right=0;overflow=hidden;" parent="z7GxIXsAkPjxGo2HdkS--44" vertex="1">
          <mxGeometry width="153" height="40" as="geometry">
            <mxRectangle width="153" height="40" as="alternateBounds" />
          </mxGeometry>
        </mxCell>
        <mxCell id="z7GxIXsAkPjxGo2HdkS--46" value="" style="shape=partialRectangle;html=1;whiteSpace=wrap;connectable=0;fillColor=none;top=0;left=0;bottom=0;right=0;overflow=hidden;" parent="z7GxIXsAkPjxGo2HdkS--44" vertex="1">
          <mxGeometry x="153" width="154" height="40" as="geometry">
            <mxRectangle width="154" height="40" as="alternateBounds" />
          </mxGeometry>
        </mxCell>
        <mxCell id="z7GxIXsAkPjxGo2HdkS--47" value="" style="shape=partialRectangle;html=1;whiteSpace=wrap;connectable=0;fillColor=none;top=0;left=0;bottom=0;right=0;overflow=hidden;" parent="z7GxIXsAkPjxGo2HdkS--44" vertex="1">
          <mxGeometry x="307" width="153" height="40" as="geometry">
            <mxRectangle width="153" height="40" as="alternateBounds" />
          </mxGeometry>
        </mxCell>
        <mxCell id="z7GxIXsAkPjxGo2HdkS--84" value="Экспортировать отчет" style="strokeWidth=1;shadow=0;dashed=0;align=center;html=1;shape=mxgraph.mockup.buttons.button;strokeColor=#666666;fontColor=#000000;mainText=;buttonStyle=round;fontSize=17;fontStyle=0;fillColor=none;whiteSpace=wrap;rounded=0;labelBackgroundColor=none;" parent="1" vertex="1">
          <mxGeometry x="120.25" y="630" width="218.5" height="30" as="geometry" />
        </mxCell>
        <mxCell id="z7GxIXsAkPjxGo2HdkS--85" value="&lt;span style=&quot;font-size: 18px&quot;&gt;&lt;b&gt;Найденные записи на прием&lt;/b&gt;&lt;/span&gt;" style="text;html=1;strokeColor=none;fillColor=none;align=left;verticalAlign=middle;whiteSpace=wrap;rounded=0;" parent="1" vertex="1">
          <mxGeometry x="120.75" y="320" width="279.5" height="20" as="geometry" />
        </mxCell>
        <mxCell id="z7GxIXsAkPjxGo2HdkS--86" value="Редактировать" style="strokeWidth=1;shadow=0;dashed=0;align=center;html=1;shape=mxgraph.mockup.buttons.button;strokeColor=#666666;fontColor=#000000;mainText=;buttonStyle=round;fontSize=17;fontStyle=0;fillColor=none;whiteSpace=wrap;rounded=0;labelBackgroundColor=none;" parent="1" vertex="1">
          <mxGeometry x="880.25" y="400" width="138.5" height="30" as="geometry" />
        </mxCell>
        <mxCell id="z7GxIXsAkPjxGo2HdkS--87" value="Редактировать" style="strokeWidth=1;shadow=0;dashed=0;align=center;html=1;shape=mxgraph.mockup.buttons.button;strokeColor=#666666;fontColor=#000000;mainText=;buttonStyle=round;fontSize=17;fontStyle=0;fillColor=none;whiteSpace=wrap;rounded=0;labelBackgroundColor=none;" parent="1" vertex="1">
          <mxGeometry x="880.25" y="440" width="138.5" height="30" as="geometry" />
        </mxCell>
        <mxCell id="z7GxIXsAkPjxGo2HdkS--91" value="" style="rounded=0;whiteSpace=wrap;html=1;" parent="1" vertex="1">
          <mxGeometry x="119.75" y="475" width="910" height="135" as="geometry" />
        </mxCell>
        <mxCell id="z7GxIXsAkPjxGo2HdkS--92" value="&lt;font style=&quot;font-size: 18px&quot;&gt;Итоговая статистика для отчетности:&lt;/font&gt;" style="text;html=1;strokeColor=none;fillColor=none;align=center;verticalAlign=middle;whiteSpace=wrap;rounded=0;" parent="1" vertex="1">
          <mxGeometry x="397.38" y="490" width="335.75" height="20" as="geometry" />
        </mxCell>
        <mxCell id="Cu953EislqYB3zRQ0-Un-4" value="" style="verticalLabelPosition=bottom;shadow=0;dashed=0;align=center;html=1;verticalAlign=top;strokeWidth=1;shape=mxgraph.mockup.graphics.simpleIcon;strokeColor=#999999;rounded=0;labelBackgroundColor=none;fontFamily=Verdana;fontSize=14;fontColor=#000000;comic=1;" parent="1" vertex="1">
          <mxGeometry x="100" y="28" width="50" height="50" as="geometry" />
        </mxCell>
        <mxCell id="Cu953EislqYB3zRQ0-Un-5" value="" style="endArrow=none;html=1;entryX=1.001;entryY=0.034;entryDx=0;entryDy=0;entryPerimeter=0;exitX=-0.001;exitY=0.034;exitDx=0;exitDy=0;exitPerimeter=0;" parent="1" edge="1">
          <mxGeometry width="50" height="50" relative="1" as="geometry">
            <mxPoint x="84.02000000000021" y="84.75999999999999" as="sourcePoint" />
            <mxPoint x="1065.98" y="84.75999999999999" as="targetPoint" />
          </mxGeometry>
        </mxCell>
        <mxCell id="bcFv1k1hZe5I3sZbUWFc-1" value="Телефон&amp;nbsp; &amp;nbsp; &amp;nbsp; О нас&amp;nbsp; &amp;nbsp; &amp;nbsp; &amp;nbsp;Наши услуги и цены&lt;span style=&quot;white-space: pre;&quot;&gt;&#x9;&lt;/span&gt;Операция 1&lt;span style=&quot;white-space: pre;&quot;&gt;&#x9;&lt;/span&gt;Операция 2" style="text;html=1;points=[];align=left;verticalAlign=top;spacingTop=-4;fontSize=14;fontFamily=Verdana" vertex="1" parent="1">
          <mxGeometry x="267" y="41" width="543" height="20" as="geometry" />
        </mxCell>
        <mxCell id="bcFv1k1hZe5I3sZbUWFc-2" value="ФИО Выйти" style="text;html=1;points=[];align=left;verticalAlign=top;spacingTop=-4;fontSize=14;fontFamily=Verdana" vertex="1" parent="1">
          <mxGeometry x="960" y="41" width="90.25" height="20" as="geometry" />
        </mxCell>
        <mxCell id="bcFv1k1hZe5I3sZbUWFc-3" value="&lt;font style=&quot;font-size: 18px&quot;&gt;Название&lt;/font&gt;" style="text;html=1;strokeColor=none;fillColor=none;align=center;verticalAlign=middle;whiteSpace=wrap;rounded=0;" vertex="1" parent="1">
          <mxGeometry x="147" y="41" width="90" height="20" as="geometry" />
        </mxCell>
        <mxCell id="bcFv1k1hZe5I3sZbUWFc-4" value="© 2024 Copyright: Парикмахерский салон &quot;Название&quot;" style="text;html=1;points=[];align=left;verticalAlign=top;spacingTop=-4;fontSize=14;fontFamily=Verdana" vertex="1" parent="1">
          <mxGeometry x="409.75" y="660" width="340" height="20" as="geometry" />
        </mxCell>
        <mxCell id="bcFv1k1hZe5I3sZbUWFc-5" value="&lt;font color=&quot;#000000&quot;&gt;&lt;span style=&quot;font-size: 18px;&quot;&gt;Выпадающий список&lt;/span&gt;&lt;/font&gt;" style="html=1;shadow=0;dashed=0;shape=mxgraph.bootstrap.rrect;rSize=5;fillColor=#ffffff;strokeColor=#CED4DA;align=left;spacing=15;fontSize=14;fontColor=#6C767D;" vertex="1" parent="1">
          <mxGeometry x="720.25" y="150" width="310" height="40" as="geometry" />
        </mxCell>
        <mxCell id="bcFv1k1hZe5I3sZbUWFc-6" value="" style="shape=triangle;direction=south;fillColor=#343A40;strokeColor=none;perimeter=none;" vertex="1" parent="bcFv1k1hZe5I3sZbUWFc-5">
          <mxGeometry x="1" y="0.5" width="7" height="3" relative="1" as="geometry">
            <mxPoint x="-17" y="1" as="offset" />
          </mxGeometry>
        </mxCell>
        <mxCell id="bcFv1k1hZe5I3sZbUWFc-7" value="" style="shape=triangle;direction=north;fillColor=#343A40;strokeColor=none;perimeter=none;" vertex="1" parent="bcFv1k1hZe5I3sZbUWFc-5">
          <mxGeometry x="1" y="0.5" width="7" height="3" relative="1" as="geometry">
            <mxPoint x="-17" y="-4" as="offset" />
          </mxGeometry>
        </mxCell>
        <mxCell id="bcFv1k1hZe5I3sZbUWFc-8" value="&lt;font style=&quot;font-size: 18px&quot; color=&quot;#000000&quot;&gt;Выпадающий список&lt;/font&gt;" style="html=1;shadow=0;dashed=0;shape=mxgraph.bootstrap.rrect;rSize=5;fillColor=#ffffff;strokeColor=#CED4DA;align=left;spacing=15;fontSize=14;fontColor=#6C767D;" vertex="1" parent="1">
          <mxGeometry x="720.25" y="200" width="310" height="40" as="geometry" />
        </mxCell>
        <mxCell id="bcFv1k1hZe5I3sZbUWFc-9" value="" style="shape=triangle;direction=south;fillColor=#343A40;strokeColor=none;perimeter=none;" vertex="1" parent="bcFv1k1hZe5I3sZbUWFc-8">
          <mxGeometry x="1" y="0.5" width="7" height="3" relative="1" as="geometry">
            <mxPoint x="-17" y="1" as="offset" />
          </mxGeometry>
        </mxCell>
        <mxCell id="bcFv1k1hZe5I3sZbUWFc-10" value="" style="shape=triangle;direction=north;fillColor=#343A40;strokeColor=none;perimeter=none;" vertex="1" parent="bcFv1k1hZe5I3sZbUWFc-8">
          <mxGeometry x="1" y="0.5" width="7" height="3" relative="1" as="geometry">
            <mxPoint x="-17" y="-4" as="offset" />
          </mxGeometry>
        </mxCell>
      </root>
    </mxGraphModel>
  </diagram>
</mxfile>
